<svg xmlns="http://www.w3.org/2000/svg" viewBox="0 0 75 75"><defs><style>.cls-1{fill:#282828;}.cls-2{fill:#3f3f3f;}.cls-3{fill:none;}</style></defs><g id="Warstwa_5" data-name="Warstwa 5"><path class="cls-1" d="M60.89,55.39v5.67a2.2,2.2,0,0,1-2.21,2.21H16.31a2.21,2.21,0,0,1-2.21-2.21V55.39a2.22,2.22,0,0,1,2.21-2.21H26.59l3.51-24a10.31,10.31,0,1,1,14.8,0l3.5,24H58.68A2.2,2.2,0,0,1,60.89,55.39Z"/><path class="cls-2" d="M60.9,55.39v5.67a2.2,2.2,0,0,1-2.21,2.21H35.82a163.32,163.32,0,0,0-.33-51.34A10.3,10.3,0,0,1,44.9,29.21l3.51,24H58.69A2.21,2.21,0,0,1,60.9,55.39Z"/><rect class="cls-3" width="75" height="75"/></g></svg>