<svg xmlns="http://www.w3.org/2000/svg" viewBox="0 0 75 75"><defs><style>.cls-1{fill:#eaeaea;}.cls-2{fill:#ccc;}.cls-3{fill:none;}</style></defs><g id="Warstwa_5" data-name="Warstwa 5"><path class="cls-1" d="M60.89,55.39v5.67a2.2,2.2,0,0,1-2.2,2.21H16.31a2.2,2.2,0,0,1-2.2-2.21V55.39a2.21,2.21,0,0,1,2.2-2.21h3.87l2.45-23.86H21.55a2.2,2.2,0,0,1-2.19-2.22V13.94a2.2,2.2,0,0,1,2.21-2.21h1.47a2.2,2.2,0,0,1,2.21,2.21v5.3l4.42,0V13.94a2.2,2.2,0,0,1,2.21-2.21h1.47a2.2,2.2,0,0,1,2.21,2.21V19.3l4.42,0V13.94a2.2,2.2,0,0,1,2.21-2.21h1.47a2.2,2.2,0,0,1,2.21,2.21v5.42l4.42,0V13.94a2.2,2.2,0,0,1,2.21-2.21H54a2.2,2.2,0,0,1,2.21,2.21v7.45a1.93,1.93,0,0,1,0,.24l0,5.67A2.21,2.21,0,0,1,54,29.5H52.39l2.43,23.69h3.87A2.2,2.2,0,0,1,60.89,55.39Z"/><path class="cls-2" d="M60.89,55.39v5.67a2.2,2.2,0,0,1-2.21,2.21H36.12a157.84,157.84,0,0,0,1.81-44H40V13.93a2.2,2.2,0,0,1,2.21-2.2h1.47a2.2,2.2,0,0,1,2.21,2.2v5.42l4.42,0V13.93a2.19,2.19,0,0,1,2.2-2.2H54a2.2,2.2,0,0,1,2.21,2.2v7.46a1.93,1.93,0,0,1,0,.24l0,5.67A2.2,2.2,0,0,1,54,29.49H52.39l2.43,23.69h3.86A2.2,2.2,0,0,1,60.89,55.39Z"/><rect class="cls-3" width="75" height="75"/></g></svg>