<svg xmlns="http://www.w3.org/2000/svg" viewBox="0 0 45 45"><defs><style>.cls-1{fill:#d67e03;}.cls-2{fill:none;}</style></defs><g id="Warstwa_5" data-name="Warstwa 5"><path class="cls-1" d="M6.28,15.33a3.12,3.12,0,1,1-3.12-3.12A3.12,3.12,0,0,1,6.28,15.33ZM15,3.48a3.12,3.12,0,1,0,3.11,3.11A3.11,3.11,0,0,0,15,3.48Zm15.59,0a3.12,3.12,0,1,0,3.12,3.11A3.12,3.12,0,0,0,30.61,3.48Zm11.23,9.35A3.12,3.12,0,1,0,45,16,3.12,3.12,0,0,0,41.84,12.83ZM37.08,19.3l-5.85,4.12L30.87,13.3a1.87,1.87,0,0,0-3.54-.77L22.5,22.19,18,12.31a1.88,1.88,0,0,0-3.57.61l-.93,10L8.27,19.19a1.87,1.87,0,0,0-2.89,2L8.72,34.67H8.41a1.5,1.5,0,0,0-1.5,1.5V40a1.5,1.5,0,0,0,1.5,1.5h28.8A1.51,1.51,0,0,0,38.72,40V36.17a1.51,1.51,0,0,0-1.51-1.5H36.13l3.8-13.23A1.87,1.87,0,0,0,37.08,19.3Z"/><rect class="cls-2" width="45" height="45"/></g></svg>