<svg xmlns="http://www.w3.org/2000/svg" viewBox="0 0 45 45"><defs><style>.cls-1{fill:#d67e03;}.cls-2{fill:none;}</style></defs><g id="Warstwa_5" data-name="Warstwa 5"><path class="cls-1" d="M36.9,33.41h-6a12.24,12.24,0,0,0-3.26-20,5.69,5.69,0,0,0,.79-2.89,5.76,5.76,0,1,0-10.82,2.75,12.25,12.25,0,0,0-3.55,20.17h-6a1.5,1.5,0,0,0-1.5,1.51v3.85a1.5,1.5,0,0,0,1.5,1.5H36.9a1.5,1.5,0,0,0,1.5-1.5V34.92A1.5,1.5,0,0,0,36.9,33.41ZM19.83,22.63h1v-.95a1.43,1.43,0,0,1,1.43-1.43h1a1.43,1.43,0,0,1,1.43,1.43v.95h.95A1.43,1.43,0,0,1,27,24.06v1a1.43,1.43,0,0,1-1.43,1.43H24.6v1a1.43,1.43,0,0,1-1.43,1.42h-1a1.43,1.43,0,0,1-1.43-1.42v-1h-1A1.43,1.43,0,0,1,18.4,25v-1A1.43,1.43,0,0,1,19.83,22.63Z"/><rect class="cls-2" width="45" height="45"/></g></svg>