<svg xmlns="http://www.w3.org/2000/svg" viewBox="0 0 45 45"><defs><style>.cls-1{fill:#d67e03;}.cls-2{fill:none;}</style></defs><g id="Warstwa_5" data-name="Warstwa 5"><path class="cls-1" d="M38.6,35.24v3.85a1.5,1.5,0,0,1-1.5,1.5H8.34a1.5,1.5,0,0,1-1.5-1.5V35.24a1.5,1.5,0,0,1,1.5-1.5h7.92c1.51-1.18,2.91-3.19,4.17-6.3a1.53,1.53,0,0,0-1.62-2.08c-.71.1-1.42.17-2.14.21a1.46,1.46,0,0,0-1.36,1.23c-1.23,6.6-12.62,4.78-7.89-4.2l3.5-7a1.49,1.49,0,0,0-.31-1.76L8,11.31A1.5,1.5,0,0,1,8,9.1C20.33-2.23,50.1,7.38,34.12,33.74h3A1.5,1.5,0,0,1,38.6,35.24Z"/><rect class="cls-2" width="45" height="45"/></g></svg>