<svg xmlns="http://www.w3.org/2000/svg" viewBox="0 0 45 45"><defs><style>.cls-1{fill:#d67e03;}.cls-2{fill:none;}</style></defs><g id="Warstwa_5" data-name="Warstwa 5"><path class="cls-1" d="M26.79,6.54v1a1.43,1.43,0,0,1-1.43,1.43h-.95v.95A1.43,1.43,0,0,1,23,11.3H22a1.43,1.43,0,0,1-1.43-1.43V8.92h-.95a1.43,1.43,0,0,1-1.43-1.43v-1a1.43,1.43,0,0,1,1.43-1.43h.95v-1A1.43,1.43,0,0,1,22,2.73h1a1.43,1.43,0,0,1,1.43,1.42v1h.95A1.43,1.43,0,0,1,26.79,6.54Zm8.54,9.65c-2.14-.69-4.55.15-6.64,2.07-1.39-3.06-3.64-5.05-6.19-5.05s-4.8,2-6.19,5.05c-2.09-1.92-4.5-2.76-6.64-2.07-4,1.31-5.55,7.54-3.47,13.92a16.92,16.92,0,0,0,4,6.74A1.41,1.41,0,0,0,9.63,38v2.86a1.42,1.42,0,0,0,1.43,1.42h22.4a1.42,1.42,0,0,0,1.43-1.42V38a1.35,1.35,0,0,0-.33-.9,16.76,16.76,0,0,0,4.24-7C40.88,23.73,39.33,17.5,35.33,16.19Z"/><rect class="cls-2" width="45" height="45"/></g></svg>