<svg xmlns="http://www.w3.org/2000/svg" viewBox="0 0 45 45"><defs><style>.cls-1{fill:#d67e03;}.cls-2{fill:none;}</style></defs><g id="Warstwa_5" data-name="Warstwa 5"><path class="cls-1" d="M38.38,34.64v3.85a1.5,1.5,0,0,1-1.5,1.5H8.12a1.5,1.5,0,0,1-1.5-1.5V34.64a1.5,1.5,0,0,1,1.5-1.5h2.63L12.41,17h-.73a1.49,1.49,0,0,1-1.49-1.51V6.51A1.5,1.5,0,0,1,11.7,5h1a1.49,1.49,0,0,1,1.49,1.5v3.6h3V6.51A1.5,1.5,0,0,1,18.69,5h1a1.5,1.5,0,0,1,1.5,1.5v3.64l3,0V6.51A1.5,1.5,0,0,1,25.69,5h1a1.5,1.5,0,0,1,1.5,1.5v3.68l3,0V6.51A1.5,1.5,0,0,1,32.68,5h1a1.5,1.5,0,0,1,1.5,1.5v5.06a.86.86,0,0,1,0,.16l0,3.85a1.5,1.5,0,0,1-1.51,1.49H32.6l1.65,16.08h2.63A1.5,1.5,0,0,1,38.38,34.64Z"/><rect class="cls-2" width="45" height="45"/></g></svg>