<?xml version="1.0" encoding="utf-8"?>
<!-- Generator: Adobe Illustrator 25.1.0, SVG Export Plug-In . SVG Version: 6.00 Build 0)  -->
<svg version="1.1" xmlns="http://www.w3.org/2000/svg" xmlns:xlink="http://www.w3.org/1999/xlink" x="0px" y="0px"
	 viewBox="0 0 549.84 292.86" style="enable-background:new 0 0 549.84 292.86;" xml:space="preserve">
<style type="text/css">
	.st0{fill:#FFFFFF;}
	.st1{fill:#6C1A31;}
	.st2{fill:#D67E03;}
	.st3{fill:#BA7625;}
	.st4{fill:#5E3225;}
	.st5{fill:#063F53;}
	.st6{fill:#7B9BC1;}
	.st7{fill:#134731;}
	.st8{fill:#8B8A8F;}
	.st9{fill:#191919;}
	.st10{fill:none;stroke:#FFFFFF;stroke-width:5;stroke-miterlimit:10;}
	.st11{fill:none;stroke:#D67E03;stroke-width:5;stroke-linejoin:round;stroke-miterlimit:10;}
	.st12{fill:#353535;}
	.st13{clip-path:url(#XMLID_38_);fill:#CCCCCC;}
	.st14{clip-path:url(#XMLID_39_);fill:#CCCCCC;}
	.st15{clip-path:url(#XMLID_40_);fill:#CCCCCC;}
	.st16{clip-path:url(#XMLID_41_);fill:#CCCCCC;}
	.st17{clip-path:url(#XMLID_42_);fill:#CCCCCC;}
	.st18{clip-path:url(#XMLID_43_);fill:#CCCCCC;}
	.st19{clip-path:url(#XMLID_49_);fill:#CCCCCC;}
	.st20{clip-path:url(#XMLID_50_);fill:#CCCCCC;}
	.st21{clip-path:url(#XMLID_59_);fill:#CCCCCC;}
	.st22{clip-path:url(#XMLID_60_);fill:#CCCCCC;}
	.st23{clip-path:url(#XMLID_61_);fill:#CCCCCC;}
	.st24{clip-path:url(#XMLID_62_);fill:#CCCCCC;}
	.st25{clip-path:url(#XMLID_63_);fill:#CCCCCC;}
	.st26{clip-path:url(#XMLID_64_);fill:#CCCCCC;}
	.st27{clip-path:url(#XMLID_65_);fill:#CCCCCC;}
	.st28{clip-path:url(#XMLID_66_);fill:#6C1A31;}
	.st29{clip-path:url(#XMLID_67_);fill:#6C1A31;}
	.st30{clip-path:url(#XMLID_68_);fill:#6C1A31;}
	.st31{clip-path:url(#XMLID_69_);fill:#6C1A31;}
	.st32{clip-path:url(#XMLID_70_);fill:#6C1A31;}
	.st33{clip-path:url(#XMLID_71_);fill:#6C1A31;}
	.st34{clip-path:url(#XMLID_72_);fill:#6C1A31;}
	.st35{clip-path:url(#XMLID_73_);fill:#CCCCCC;}
	.st36{clip-path:url(#XMLID_74_);fill:#3F3F3F;}
	.st37{clip-path:url(#XMLID_75_);fill:#3F3F3F;}
	.st38{clip-path:url(#XMLID_76_);fill:#3F3F3F;}
	.st39{clip-path:url(#XMLID_77_);fill:#3F3F3F;}
	.st40{clip-path:url(#XMLID_78_);fill:#3F3F3F;}
	.st41{clip-path:url(#XMLID_79_);fill:#6C1A31;}
	.st42{clip-path:url(#XMLID_80_);fill:#3F3F3F;}
	.st43{clip-path:url(#XMLID_81_);fill:#3F3F3F;}
	.st44{clip-path:url(#XMLID_82_);fill:#3F3F3F;}
	.st45{clip-path:url(#XMLID_83_);fill:#6C1A31;}
	.st46{clip-path:url(#XMLID_84_);fill:#D67E03;}
	.st47{clip-path:url(#XMLID_85_);fill:#D67E03;}
	.st48{clip-path:url(#XMLID_86_);fill:#D67E03;}
	.st49{clip-path:url(#XMLID_87_);fill:#D67E03;}
	.st50{clip-path:url(#XMLID_88_);fill:#3F3F3F;}
	.st51{clip-path:url(#XMLID_89_);fill:#3F3F3F;}
	.st52{clip-path:url(#XMLID_90_);fill:#3F3F3F;}
	.st53{clip-path:url(#XMLID_91_);fill:#3F3F3F;}
	.st54{clip-path:url(#XMLID_92_);fill:#3F3F3F;}
	.st55{clip-path:url(#XMLID_93_);fill:#3F3F3F;}
	.st56{clip-path:url(#XMLID_94_);fill:#3F3F3F;}
	.st57{clip-path:url(#XMLID_95_);fill:#3F3F3F;}
	.st58{opacity:0.7;}
	.st59{opacity:0.5;}
</style>
<g id="Warstwa_1">
</g>
<g id="Warstwa_2">
	<g>
		<g>
			<path id="path6_3_" class="st0" d="M268.58,0c1.67,13.35,3.47,26.68,5.18,40.02c1.19,8.77,2.38,17.55,3.07,26.36
				c-2.87-1.51-5.56-3.55-8.79-4.22c-0.03,1.52,0.27,3.02,0.5,4.52c2.11,12.45,4.1,24.92,5.58,37.46c0.2,1.77,0.51,3.54,0.54,5.33
				c-0.35-0.13-0.72-0.22-0.96-0.51c-1.82-1.87-3.57-3.8-5.39-5.66c3.52,21.85,7.31,43.66,10.77,65.52
				c0.59,3.48,1.01,6.71,1.72,10.03c0.61-2.12,0.66-4.35,1.01-6.53c1.25-13.4,1.98-26.85,3.01-40.28c1.14,2.39,2.41,4.71,3.61,7.07
				c0.78,1.42,1.41,2.93,2.34,4.26c0.28,0.05,0.55,0.1,0.84,0.15c0.02-6,0.08-11.99,0.08-17.98c0.14-3.42-0.13-6.84,0.19-10.25
				c0.01-6.63,0.02-13.25,0.11-19.88c2.23,4.46,4.41,8.94,6.66,13.39c0.34-0.45,0.99-0.83,0.85-1.49
				c-0.69-11.4-1.52-22.79-2.06-34.19c-0.25-2.29-0.2-4.6-0.28-6.91c0.53,0.2,0.79,0.72,1.08,1.17c2.76,4.47,5.54,8.93,8.24,13.44
				c0.38,0.59,1.2,0.42,1.8,0.42c3.09-0.29,6.1-1.17,9.03-2.19c4.38-1.59,8.73-3.67,11.97-7.11c2.31,0.45,4.58,1.23,6.74,2.19
				c0.05,7.62-0.09,15.24-0.04,22.86c0.18,4.28-0.34,8.68,0.88,12.85c0.94,2.99,3.41,5.1,5.63,7.15c3.97,3.48,8.14,6.73,12.3,9.97
				c1.8,1.46,4.28,1.23,6.45,1.11c2.59-0.2,4.89-1.49,7.22-2.53c2.19-1.01,4.34-2.11,6.46-3.29c2.81-1.55,5.21-3.84,6.85-6.59
				c1.04-1.69,1.29-3.69,1.62-5.6c0.62-4.11,0.9-8.27,0.88-12.42c0.15-7.5-1.15-14.93-1.86-22.37l-0.15-0.23
				c-0.05-1.47-0.32-2.92-0.52-4.37c-0.29-1.95-0.5-3.95-1.35-5.75c-0.77-1.72-1.98-3.2-3.35-4.48c-3.64-3.36-7.6-6.42-12-8.71
				c-1.86-1.07-4.02-0.13-5.84,0.56c-6.34,2.69-12.2,6.37-17.99,10.08c-1.36,0.82-2.5,2.08-2.9,3.65c-0.33,1.32-1.01,2.51-1.8,3.61
				c-2.14-0.21-4.07-1.21-6.11-1.79c0.79-10.44,1.89-20.85,2.63-31.3c0.11-1.98,0.61-4.1-0.26-5.99c-0.92-2.21-2.55-4-3.99-5.87
				c-5.35-6.56-10.66-13.15-16.2-19.55c-1.18-0.17-2.34,0.12-3.43,0.54c-3.6,1.3-7.17,2.68-10.8,3.88
				c-0.51,0.18-1.05,0.24-1.58,0.31c-0.54-3.13,0.19-6.28,0.25-9.42c-5.14-0.06-10.3,0.24-15.45-0.04
				c-3.64-0.23-7.28-0.28-10.93-0.43L268.58,0z M307.61,13.41c0.48-0.01,0.96,0.14,1.38,0.4c0.29,0.53,0.4,1.12,0.46,1.72
				c1.62,8.79,2.13,17.72,2.63,26.63c0.15,2.05-0.04,4.13,0.25,6.16c0.1,4.27,0.14,8.54,0.08,12.81c-0.96,0.17-1.94,0.07-2.9-0.06
				c-2.8-0.28-5.61,0.15-8.36,0.64c-1.41,0.16-2.81,0.43-4.22,0.57c-0.33-12.18-0.14-24.37-0.27-36.56
				c0.01-2.78-0.01-5.56,0.01-8.35c-0.01-0.7,0.22-1.63,1.04-1.75c3.09-0.93,6.29-1.4,9.43-2.14
				C307.28,13.43,307.45,13.41,307.61,13.41L307.61,13.41z M363.62,57.01c0.41,1.47,0.04,3.01-0.43,4.42
				c-1.04,2.27-2.88,4.03-4.87,5.47c-1.78,1.37-4.18,1.54-5.84,3.1c-0.23-0.36-0.32-0.74-0.3-1.15c0.01-1.36-0.1-2.74,0.26-4.07
				C356.02,61.97,359.86,59.54,363.62,57.01L363.62,57.01z M300.77,65.81c1.03,0.05,2.09-0.01,3.1,0.26
				c2.77,0.22,5.5,0.72,8.19,1.41l0.27,0.67c0.01,0.26,0.03,0.51,0.05,0.77c-1.03,1.67-2.28,3.19-3.51,4.72
				c-1.17,0.43-1.77-0.79-2.49-1.44C304.48,70.11,302.58,68,300.77,65.81L300.77,65.81z M364.75,71.35
				c0.86,6.37,1.71,12.75,2.2,19.17c0.19,2.27,0.01,4.56,0.27,6.83c0.14,1.87-0.2,3.73-0.14,5.6c-0.04,3.63-0.38,7.25-0.81,10.85
				c-0.3,1.88-0.47,3.82-1.23,5.58c-1.75,1-3.49,2.04-5.39,2.72c-0.47,0.21-0.98,0.23-1.48,0.19c-1.34-1.37-2.86-2.66-3.8-4.35
				c-0.63-6.85-1.2-13.73-1.44-20.62c-0.29-2.15-0.17-4.32-0.26-6.48c-0.38-5.41-0.22-10.85-0.27-16.27
				c0.8-0.36,1.59-0.71,2.42-1.02c1.49-0.7,3.05-1.25,4.52-2.01C361.13,71.37,362.94,71.37,364.75,71.35z"/>
			<path id="path12_3_" class="st0" d="M198.06,15.75c0.78-0.2,1.8,0.02,2.15,0.82c0.29,4.06,0.17,8.16,0.49,12.22
				c0.04,0.21,0.13,0.64,0.18,0.85c0.35-0.03,0.73-0.03,1.02-0.27c2.09-1.44,4.14-2.93,6.28-4.3c1.02-0.62,2.04-1.29,3.2-1.61
				c1.08-0.16,1.88,0.77,2.43,1.58c1.58,2.34,2.78,4.92,3.99,7.47c1.36,3.15,2.95,6.24,3.72,9.6c0.4,1.3-0.94,2.05-1.79,2.7
				c-4.3,3.01-8.74,5.85-13.32,8.42c-1.06,0.67-1.58-0.96-2.3-1.47c0.89-1.06,1.82-2.1,2.78-3.1c0.38-0.34,0.13-0.89,0.05-1.31
				c-1.13-3.57-2.08-7.19-3.22-10.76c-0.03-0.19-0.09-0.56-0.12-0.75c-1-0.25-2.03-0.09-2.94,0.37c-0.08,0.16-0.25,0.47-0.33,0.63
				c-0.21,5.69,0.02,11.39-0.02,17.09c-0.02,7.03,0.04,14.06,0.03,21.09c0.24,1.95,0.1,3.92,0.13,5.88
				c0.02,5.08,0.06,10.17,0.13,15.25c0.9,2.24,3.08,3.53,4.46,5.38c-1.27,0.07-2.53-0.07-3.77-0.26c-1.85-0.03-3.73-0.17-5.56-0.19
				c-2.98-0.29-6-0.08-8.96,0.32c-1.33,0.17-2.7,0.02-4.01,0.31c-1.72,0-3.56,0.33-5.18-0.42c-0.84-0.38-1.69-0.77-2.56-1.08
				c0.04-0.1,0.13-0.3,0.17-0.41c1.56-0.91,2.91-2.12,4.21-3.36c1.14-1.16,2.31-2.45,2.63-4.1c0.95-4.57,1.07-9.26,1.36-13.9
				c0.04-13.55,0.22-27.09,0.38-40.63c-0.04-0.51,0.11-1.08-0.15-1.55c0.44-1.15,0.09-2.5,0.2-3.73c-0.77,0.23-1.54,0.46-2.3,0.72
				c-0.35,0.01-0.7,0.02-1.04,0.04c-0.16-0.26-0.33-0.52-0.49-0.78c0.52-0.68,1.22-1.19,1.86-1.75c4.58-4.5,9.14-9.02,13.7-13.55
				C196.19,16.44,197.1,15.98,198.06,15.75L198.06,15.75z"/>
			<path id="path14_3_" class="st0" d="M61.95,18.78c2.64,0.25,5.27,0.74,7.93,0.69c4.34,0.22,8.7,0.26,13.04-0.08
				c3.46-0.13,6.91-0.73,10.37-0.65c-0.16,1.11-1.25,1.63-1.77,2.54c-1.52,2.56-2.75,5.33-3.42,8.23c-0.29,2.13-0.41,4.29-0.41,6.44
				c-0.11,11.45-0.04,22.91,0.11,34.37c-0.12,0.53,0.46,0.75,0.87,0.55c6.61-1.65,13.44-2.15,20.24-1.95
				c2.44,0.11,4.98-0.1,7.34,0.66c-0.05,0.27-0.09,0.53-0.13,0.8c-0.74,0.27-1.51,0.52-2.1,1.05c-1.86,1.54-3.56,3.27-5.31,4.94
				c-0.44,0.48-1.17,0.96-0.95,1.72c0.68,3.79,0.84,7.64,1.58,11.42c1.44,5.26,3.15,10.45,4.49,15.74c0.56,0,1.08-0.2,1.46-0.63
				c0.82-0.84,1.8-1.5,2.67-2.28c0.32-3.41,0.44-6.85,0.53-10.28c0.23-2.37,0.15-4.74,0.22-7.11c0.09-12.46-0.15-24.95-1.66-37.33
				c-0.69,0.16-1.39,0.32-2.03,0.64c-3.27,1.48-6.47,3.12-9.51,5.03c-0.82,0.48-1.59,1.15-1.89,2.09c-0.69,2.16-0.5,4.47-0.38,6.7
				c-0.5,0.16-1,0.32-1.49,0.48c-2.6-4.19-5.3-8.36-7.14-12.96c-0.53-1.57-1.35-3.17-1.04-4.88c1.27-0.6,2.3-1.57,3.46-2.35
				c4.62-3.27,9.5-6.25,14.74-8.41c0.71-0.24,1.71-0.74,2.3-0.01c4.86,4.87,9.56,9.89,14.22,14.95c2.51,2.8,5.25,5.72,6.01,9.54
				c0.71,4.46,0.82,8.99,0.84,13.5c-0.04,5.16,0.13,10.33-0.24,15.48c-0.03,3.96-0.14,7.92-0.15,11.88
				c1.78,0.81,3.84,0.88,5.72,0.39c-0.08,0.57-0.52,0.96-0.92,1.33c-2.59,2.37-5.23,4.69-7.88,6.99c-1.81,1.52-2.71,3.83-4.51,5.35
				c-1.92,1.69-4.8,1.84-7.15,1.08c-2.4-1.25-2.4-4.26-2.59-6.6c-3.13,2.25-6.21,4.6-9.27,6.95c-1.44,1.12-3.36,0.48-4.97,0.17
				c-1.17-0.33-2.68-0.79-3-2.13c-1.36-4.12-2.7-8.24-4.06-12.36c-1.48-4.63-3.21-9.19-4.21-13.95c-0.42-1.53,0.33-3.03,1.09-4.31
				c2.05-3.3,4.99-5.9,7.77-8.55c-4.34,0.83-8.85,1.52-12.72,3.77C88,88.1,88.13,98.76,88.1,109.42c0.21,4.55-0.01,9.11,0.14,13.66
				c0.01,5.36,0.04,10.73,0.18,16.09c0.32,4.18,0.99,8.74,3.89,11.98c1.04,1.3,2.74,1.73,3.9,2.88c-0.15,0.49-0.36,0.95-0.6,1.4
				c-0.52,0-1.04,0.03-1.56-0.03c-5.76-0.93-11.56-1.61-17.39-1.84c-5.49-0.04-11-0.25-16.46,0.41c-0.27-0.9-1.18-1.6-1.12-2.57
				c3.04-1.7,5.97-4.07,7.17-7.46c1.52-4.31,1.72-8.92,2.09-13.43c0.39-8.16,0.51-16.34,0.28-24.51
				c-0.21-5.47-0.16-10.97-0.85-16.41c-5.71,4.47-12.77,6.72-19.76,8.27c0.06,11.36,0.21,22.71,0.29,34.07
				c0.11,2.38-0.11,4.79,0.17,7.16c0.69,2.6,3.25,3.94,5.39,5.22c0.49,0.33,1.28,1.03,0.84,1.62c-0.89,0.11-1.71-0.32-2.55-0.5
				c-2.72-0.59-5.5-0.77-8.26-1.01c-9.19-0.62-18.4-0.77-27.61-0.82c-0.33-0.1-1.24-0.42-0.56-0.72c0.02-0.27,0.07-0.79,0.1-1.06
				c3.28-1.3,6.58-3.18,8.41-6.32c1.11-1.88,1.14-4.11,1.33-6.21c0.26-4.14,0.18-8.28,0.34-12.42c0.01-5.73-0.12-11.46-0.2-17.2
				c-4.36-2.02-8.72-4.03-12.96-6.27c-2.96-1.46-5.06-4.14-6.86-6.83c-1.51-2.37-2.86-4.86-3.92-7.47v-0.64
				c4.74-2.15,9.95-2.89,15.06-3.59c0,0.51,0.15,1.17-0.39,1.46c-3.18,1.91-6.55,3.52-9.65,5.56c1.04,1.22,2.34,2.17,3.64,3.09
				c3.59,2.49,7.48,4.51,11.41,6.4c1.07,0.48,2.13,1.13,3.34,1.14c0.19-2.01,0.07-4.03,0.09-6.04c-0.14-4.12-0.03-8.26-0.34-12.37
				c-0.1-3.11,0-6.22-0.28-9.32c-0.25-10.35-0.71-20.69-1.1-31.03c-0.63-3.24-3.48-5.45-6.46-6.46c0.05-0.62,0.42-1.24,1.06-1.38
				c1.05-0.1,2.1,0.02,3.15,0.08c1.44,0.21,2.89,0.08,4.34,0.11c2.16-0.03,4.34,0.1,6.49-0.14c3.3-0.07,6.61-0.08,9.92-0.16
				c2.83-0.22,5.67-0.26,8.5-0.27c-0.1,0.61-0.2,1.22-0.3,1.83c-1.76,0.9-2.87,2.68-3.34,4.55c-0.34,1.94-0.29,3.93-0.32,5.9
				c0,5.17-0.01,10.34,0.17,15.5c0.11,4.34,0.04,8.69,0.33,13.02c0.06,3.31,0.07,6.62,0.2,9.94c0.25,4.22,0.25,8.46,0.57,12.68
				c2.04-0.28,3.87-1.31,5.69-2.21c4.94-2.72,9.74-5.74,14.12-9.31c0.05-17.56-0.44-35.14-1.83-52.65
				c-0.07-1.83-1.53-3.15-3.07-3.88C62.11,20.56,61.85,19.64,61.95,18.78L61.95,18.78z"/>
			<path id="path16_3_" class="st0" d="M407.08,18.42c0.94-0.18,1.17,0.84,1.14,1.56c0.03,4.3,0.21,8.59,0.26,12.89
				c0.14,2.53-0.1,5.09,0.27,7.59c3-0.03,6,0.1,9.01,0.09c0.06,0.55,0.11,1.09,0.19,1.64c0.26,0.9,0.11,1.85,0.38,2.74
				c0.1,0.97,0.2,1.95,0.25,2.92c-2.89,0.06-5.77,0.11-8.66,0.14c-0.4-0.03-0.77,0.09-1.13,0.23c-0.54,8.72-0.1,17.46-0.28,26.19
				c-0.15,7.55-0.51,15.1-0.72,22.66c-0.25,1.11-0.11,2.26-0.19,3.39c-0.33,8.57-0.79,17.14-1.09,25.71
				c-0.13,2.18-0.59,4.7,0.84,6.57c2.32,2.34,4.99,4.32,7.74,6.13c-0.57,0.64-1.09,1.37-1.8,1.86c-0.56,0-1.04-0.35-1.53-0.54
				c-5.66-2.81-11.39-5.52-16.85-8.72c-1.39-0.82-2.75-1.78-3.63-3.15c-0.86-1.26-1.11-2.82-1.12-4.32
				c0.11-8.06,0.21-16.12,0.54-24.17c0.27-7.97,1.15-15.9,1.31-23.87c0.16-8.26,0.08-16.55-0.76-24.76
				c-0.07-1.2-0.23-2.39-0.48-3.56c-4.4,0.02-8.8-0.06-13.2-0.06c-0.06-0.77-0.09-1.55-0.03-2.32c5.33-2.97,10.24-6.69,14.85-10.7
				c4.5-3.99,8.57-8.45,12.15-13.29C405.33,20.25,406.06,19.2,407.08,18.42L407.08,18.42z"/>
			<path id="path18_3_" class="st0" d="M152.21,24.15c0.7-0.39,1.37-1.06,2.24-0.99c1.26,0.21,2.4,0.84,3.59,1.26
				c0.67,3.04,0.66,6.23,1.14,9.31c0.04,0.36,0.07,0.72,0.11,1.08c0.11,0.08,0.33,0.25,0.44,0.33c1.65-1.33,3.48-2.41,5.26-3.54
				c1.65-1.03,3.57-1.93,5.56-1.62c1.26,0.3,1.93,1.54,2.54,2.57c1.36,2.75,2.53,5.59,3.66,8.44c1.27,3.1,2.64,6.21,3.26,9.51
				c-0.07,1.05-0.57,2.02-1.49,2.58c-4.05,2.63-8.21,5.12-12.36,7.59c-0.46,0.26-0.91,0.62-1.47,0.57c-0.3-0.53-0.68-1-1.11-1.43
				c1.01-1,1.94-2.06,2.87-3.12c-0.06-0.04-0.19-0.13-0.25-0.18c-0.27-1.6-0.79-3.14-1.21-4.71c-0.95-3.45-1.99-6.88-2.97-10.32
				c-0.2-0.95-1.35-2.07-2.26-1.2c-0.26,1-0.09,2.05-0.09,3.07c0.22,7.05,0.51,14.09,0.66,21.13c0.36,2.44,0.01,4.95,0.41,7.39
				c0.28,4.57,0.9,9.12,1.16,13.7c0.63,5.57,0.6,11.23,1.48,16.78c0.57,1.55,2.2,2.3,3.56,3.01c0.09,0.15,0.27,0.45,0.35,0.6
				c-0.05,0.18-0.16,0.55-0.22,0.73c-8.64,0.21-17.28,0.17-25.92,0.18c-0.92,0-1.84,0.05-2.75-0.11c0.48-1.18,1.31-2.24,2.41-2.88
				c1.12-0.63,2.25-1.3,3.14-2.23c0.33-0.32,0.46-0.77,0.42-1.21c0.01-8.79-0.01-17.57-0.03-26.36c0.1-1.25-0.22-2.47-0.17-3.72
				c0.01-6.62-0.09-13.25-0.15-19.87c-0.36-3.87-0.04-7.78-0.56-11.63c-3.15,0-6.32-0.15-9.45,0.24c-0.55-0.15-1.39-0.48-1.45-1.13
				C139.07,33.31,145.55,28.6,152.21,24.15L152.21,24.15z"/>
			<path id="path20_3_" class="st0" d="M434.48,27.03c0.42-0.83,0.88-1.73,1.78-2.15c0.2,0.11,0.61,0.33,0.81,0.45
				c0.32,2.61,0.26,5.25,0.41,7.87c0.23,1.01,0.11,2.05,0.18,3.08c0.21,5.09,0.53,10.17,0.71,15.26c1.47-0.03,2.95,0.04,4.42-0.09
				c1.04,0.2,2.07-0.1,3.11-0.08c1.62,0.02,3.25,0,4.88-0.06c-0.1,2.04,0.04,4.13-0.36,6.14c-3.92,0.16-7.84,0.34-11.75,0.69
				c0.04,4.61-0.03,9.21,0.04,13.82c0.2,0.69,0.11,1.42,0.13,2.13c-0.02,7.65,0.12,15.3,0.15,22.95c0.3,3.5,0.13,7.03,0.25,10.54
				c0.11,6.4,0.29,12.79,0.4,19.19c0.22,3.47,0.1,6.96,0.47,10.42c3.29,1.69,6.53,3.48,9.81,5.17c0.89,0.35,1.75,1.29,2.76,1
				c2.21-1.5,4.18-3.34,6.22-5.07c0.51-0.32,0.18-0.93,0.07-1.37c-3.36-1.04-6.86-1.48-10.28-2.25c-1.19-0.33-2.78-0.23-3.42-1.5
				c2.22-0.6,4.55-0.26,6.82-0.18c5.26,0.27,10.53,0.61,15.79,0.94c0.55,0.11,1.43,0.11,1.45,0.91c0.12,1.03-0.88,1.49-1.49,2.1
				c-2.44,2.23-4.61,4.73-6.92,7.09c-1.39,1.4-2.29,3.26-4,4.34c-0.59,0.5-1.43,0.43-2.11,0.23c-5.59-1.73-11.14-3.6-16.59-5.74
				c-5.01-2-10.12-4.01-14.49-7.25c-0.59-0.55-1.39-1.08-1.44-1.97c-0.48-8.27-0.36-16.55-0.37-24.84c0.02-3.21,0.1-6.41,0.2-9.61
				c0.04-13.78-0.31-27.55-0.6-41.33c-2.22,0.11-4.45,0.11-6.66-0.08c-0.97-0.04-1.44-1.23-1.07-2.02c0.28-0.47,0.65-0.88,1.04-1.28
				c4.32-4.37,8.38-9.03,11.86-14.12C429.67,36.15,432.17,31.63,434.48,27.03L434.48,27.03z"/>
			<path id="path22_3_" class="st0" d="M511.3,39.35c0.87-0.65,1.8,0.19,1.93,1.08c0.51,2.72,0.49,5.51,0.95,8.25
				c3.23-1.94,6.48-3.83,9.67-5.84c0.71-0.43,1.27-1.16,2.15-1.26c0.58-0.11,1.4-0.08,1.74,0.51c1.44,2.02,2.67,4.19,3.96,6.31
				c2,3.51,4.05,7.01,5.52,10.78c0.52,1.23,0.6,2.63,0.36,3.93c-0.94,1.9-2.8,3.05-4.32,4.44c-4.37,3.53-8.79,6.99-13.24,10.42
				c-0.42-0.64-0.99-1.14-1.54-1.65c1.2-1.84,2.61-3.53,3.87-5.33c0.09-0.42-0.05-0.83-0.16-1.23c-1.09-3.39-2.1-6.8-3.19-10.18
				c-0.54-1.73-1.06-3.45-1.62-5.17c-1.14,0.79-2.29,1.59-3.48,2.32c0.14,9.32,0.61,18.62,0.75,27.94c0.33,3.19,0.13,6.42,0.32,9.63
				c0.32,2.76,0.06,5.56,0.36,8.33c0.16,7.05,0.53,14.1,0.86,21.14c0.3,2.44,2.15,4.3,4.17,5.51c2.55,1.53,5.42,2.43,8.3,3.09
				c0.5,0.13,1,0.22,1.51,0.36c1.2,0.16,2.39,0.41,3.61,0.53c-0.02,0.68-0.05,1.36-0.07,2.05c-2.62,0.15-5.24-0.03-7.86,0.01
				c-1.13-0.07-2.27,0.06-3.37-0.17c-3.55,0.01-7.1-0.39-10.55-1.23c-3.45-0.76-6.86-1.7-10.24-2.74
				c-4.26-1.25-8.71-2.19-13.17-1.65c-0.29-0.69-0.6-1.37-0.79-2.08c3.72-0.33,6.3-3.5,8.25-6.39c1.52-3.11,1.51-6.68,1.58-10.06
				c0.1-9.72-0.13-19.44-0.19-29.16c-0.27-2.55-0.09-5.15-0.2-7.72c0.02-5.36-0.37-10.71-0.28-16.07c-1.54-0.09-3.07,0.21-4.61,0.15
				c-0.03-0.38-0.06-0.75-0.07-1.13c0.67-1.01,1.24-2.12,2.17-2.93C500.09,49.26,505.63,44.24,511.3,39.35L511.3,39.35z"/>
			<path id="path24_3_" class="st0" d="M470.42,46.88c-0.83,0.02-1.66,0.12-2.45,0.33c-5.92,4.62-11.66,9.5-17.62,14.07
				c-0.64,2.97-0.7,6.05-1.1,9.06c-0.03,2-0.81,3.9-0.79,5.9c0.35,8.16,0.27,16.31,0.38,24.47c-0.03,2-0.67,3.92-0.75,5.91
				c1.16,1.21,2.23,2.5,3.38,3.72c4.13,4.25,8.27,8.56,13.17,11.93c0.76,0.59,1.75,0.71,2.67,0.88c2.36,0.22,4.73,0.49,7.1,0.13
				c1.15,0.07,2.01-0.8,2.65-1.65c2.15-3.16,4.59-6.12,6.91-9.15c1.24-1.74,2.77-3.29,3.7-5.23c-2.04-2.94-3.58-6.29-6.08-8.88
				c-0.28,0.02-0.85,0.08-1.13,0.1c-0.21,1.94-0.67,3.83-1.08,5.73c-1.21,4.94-2.52,9.9-4.74,14.51c-0.25,0.46-0.52,1.39-1.2,0.93
				c-3.43-1.93-5.95-5.44-6.84-9.26c-0.53-3.18-0.36-6.43-0.63-9.64c-0.09-4.02-0.16-8.05-0.16-12.07
				c-0.03-0.52,0.05-1.08-0.22-1.55c0.3-0.48,0.18-1.03,0.06-1.54c0.14-2.18-0.53-4.56,0.61-6.6c3.28-0.04,6.45,0.94,9.62,1.67
				c1.9,0.46,3.79,0.96,5.69,1.45c0.4,0.12,0.8,0.21,1.22,0.31c1.38,0.37,2.76,0.69,4.15,1.05c0.5,0.11,1.16,0.26,1.53-0.22
				c2.76-2.57,4.45-6.02,6.18-9.3c-0.6-2.06-1.51-4.04-2.21-6.08c-1.05-2.77-2.11-5.54-3.13-8.33c-0.65-1.58-1.12-3.24-1.83-4.8
				c-2.1-1.33-4.37-2.41-6.54-3.64c-0.82-0.42-1.63-0.84-2.45-1.26c-2.15-1.06-4.28-2.26-6.6-2.92
				C471.42,46.88,470.92,46.86,470.42,46.88L470.42,46.88z M469.88,52.31c0.58,0.01,1.09,0.31,1.21,1c1.21,3.1,2.43,6.19,3.66,9.28
				c1.59,3.91,3.03,7.88,4.71,11.75c-0.01,0.26-0.01,0.53-0.01,0.79c-1.89,0.1-3.78-0.26-5.64-0.46c-2.68-0.15-5.34-0.54-8.01-0.76
				c0.01-3.16,0.35-6.31,0.46-9.46c0.38-3.7,0.1-7.62,1.69-11.07C468.26,52.73,469.13,52.29,469.88,52.31L469.88,52.31z"/>
			<path id="path28_3_" class="st0" d="M238.89,53.21c2.63,0.52,5.33,0.17,7.99,0.48c2.38,0.05,4.74,0.3,7.09,0.6
				c1.32,0.05,2.67,0.11,3.97-0.2c-0.03,0.26-0.06,0.52-0.09,0.78c-1.13,1.84-2.2,3.72-3.02,5.72c-2.88,6.21-6.24,12.18-9.58,18.15
				c-3,5.29-5.67,10.77-8.62,16.09c-7.79,14-16.29,27.65-26.03,40.4c-5.3,0.1-10.59-0.35-15.85-0.98
				c-4.99-0.78-9.96-1.76-14.81-3.18c-1.67-0.45-3.32-1-4.96-1.56c-1.14-0.41-2.3-0.79-3.43-1.25c-1.17-0.45-2.32-0.95-3.48-1.44
				c-2.06-0.9-4.06-1.89-6.03-2.96c-0.14-1.15,0.71-2.17,1.21-3.16c2.08-3.27,4.83-6.02,7.63-8.67c4.04,0.27,8.07,0.76,12.11,1.09
				c1,0.29,2.18-0.13,3.07,0.53c-0.1,0.57-0.7,0.63-1.13,0.79c-3.33,0.92-6.68,1.76-9.99,2.73c-0.7,0.13-0.79,0.94-1.07,1.47
				c-0.54,1.46-1.26,2.92-1.3,4.51c2.39,1.14,5.09,1.31,7.66,1.76c8.46,1.15,17.06,1.67,25.57,0.81c3.09-5.06,6.31-10.04,9.45-15.08
				c0.94-1.37,1.71-2.85,2.75-4.14c0.48-0.6,0.2-1.43,0.07-2.1c-2.17-7.66-4.57-15.25-6.93-22.85c-1.02-3.21-2.04-6.42-3.08-9.62
				c-0.54-1.54-1.01-3.11-1.56-4.65c-0.58-1.57-1.04-3.19-1.78-4.7c-0.9-1.11-2.46-1.34-3.79-1.48c0.12-0.42,0.32-0.8,0.59-1.14
				c1.07-0.01,2.14-0.05,3.21-0.11c3.39-0.33,6.82-0.16,10.21-0.4c4.41,0.06,8.81-0.56,13.21-0.7c-0.86,1.85-3.4,1.63-4.5,3.24
				c-0.56,0.62-0.63,1.51-0.41,2.29c1.72,6.58,3.45,13.16,5.31,19.7c0.27,0.74,0.33,1.62,0.98,2.15c3.12-4.89,5.83-10.02,8.69-15.07
				c1.15-2.11,2.31-4.21,3.38-6.37c0.51-1.04,0.56-2.23,0.97-3.31c0.39-1.26,0.8-2.5,1.25-3.74c0.21-0.54,0.43-1.08,0.65-1.62
				C242.31,55.85,240.49,54.56,238.89,53.21L238.89,53.21z"/>
		</g>
		<line class="st10" x1="1.97" y1="169.36" x2="267.84" y2="169.36"/>
		<line class="st10" x1="1.97" y1="290.36" x2="549.84" y2="290.36"/>
		<line class="st10" x1="290.97" y1="169.36" x2="549.84" y2="169.36"/>
		<g>
			<g>
				<path class="st0" d="M18.87,258.72c-4.29,0-7.69-0.78-10.19-2.34c-2.5-1.56-4.26-3.76-5.29-6.58c-1.03-2.82-1.54-6.15-1.54-9.97
					v-20.44c0-3.92,0.51-7.29,1.54-10.12c1.03-2.82,2.79-5,5.29-6.54c2.5-1.54,5.89-2.31,10.19-2.31c4.2,0,7.48,0.69,9.83,2.07
					c2.36,1.38,4.03,3.3,5.01,5.77c0.98,2.47,1.47,5.32,1.47,8.54v4.9H22.93v-5.67c0-1.12-0.06-2.19-0.17-3.22
					c-0.12-1.03-0.46-1.88-1.02-2.55c-0.56-0.68-1.52-1.02-2.87-1.02c-1.31,0-2.28,0.35-2.91,1.05c-0.63,0.7-1.03,1.58-1.19,2.63
					c-0.16,1.05-0.24,2.16-0.24,3.33v26.67c0,1.26,0.1,2.42,0.31,3.47c0.21,1.05,0.63,1.89,1.26,2.52c0.63,0.63,1.55,0.95,2.77,0.95
					c1.31,0,2.24-0.34,2.8-1.02c0.56-0.68,0.91-1.55,1.05-2.63c0.14-1.07,0.21-2.17,0.21-3.29v-5.95h12.25v4.9
					c0,3.22-0.48,6.1-1.43,8.65c-0.96,2.54-2.61,4.55-4.97,6.02C26.41,257.99,23.11,258.72,18.87,258.72z"/>
				<path class="st0" d="M42.25,257.88v-56.7h12.53v22.96h8.75v-22.96h12.6v56.7h-12.6V233.1h-8.75v24.78H42.25z"/>
				<path class="st0" d="M84.74,257.88v-56.7h25.48v8.54H97.27v14.07h9.87v8.68h-9.87v16.94h13.09v8.47H84.74z"/>
				<path class="st0" d="M131.07,258.72c-3.55,0-6.51-0.63-8.89-1.89c-2.38-1.26-4.18-3.21-5.39-5.84
					c-1.21-2.64-1.89-6.06-2.03-10.26l10.71-1.61c0.04,2.43,0.27,4.39,0.66,5.88c0.4,1.49,0.96,2.57,1.68,3.22
					c0.72,0.65,1.6,0.98,2.63,0.98c1.31,0,2.16-0.44,2.55-1.33c0.4-0.89,0.59-1.82,0.59-2.8c0-2.33-0.56-4.31-1.68-5.92
					c-1.12-1.61-2.64-3.23-4.55-4.87l-4.9-4.27c-2.15-1.82-3.96-3.89-5.43-6.2c-1.47-2.31-2.21-5.17-2.21-8.57
					c0-4.81,1.42-8.48,4.27-11.02c2.85-2.54,6.72-3.82,11.62-3.82c3.03,0,5.47,0.51,7.31,1.54c1.84,1.03,3.24,2.37,4.2,4.03
					c0.96,1.66,1.61,3.41,1.96,5.25c0.35,1.84,0.55,3.6,0.6,5.28l-10.78,1.33c-0.05-1.68-0.15-3.14-0.31-4.38
					c-0.16-1.24-0.5-2.19-1.02-2.87c-0.51-0.68-1.31-1.01-2.38-1.01c-1.17,0-2.02,0.49-2.56,1.47s-0.8,1.96-0.8,2.94
					c0,2.1,0.5,3.81,1.5,5.15c1,1.33,2.32,2.72,3.96,4.17l4.69,4.13c2.47,2.1,4.56,4.48,6.27,7.14c1.7,2.66,2.55,5.95,2.55,9.87
					c0,2.66-0.61,5.08-1.82,7.25s-2.93,3.89-5.14,5.15C136.73,258.09,134.11,258.72,131.07,258.72z"/>
				<path class="st0" d="M167.05,258.72c-3.55,0-6.51-0.63-8.89-1.89c-2.38-1.26-4.18-3.21-5.39-5.84
					c-1.21-2.64-1.89-6.06-2.03-10.26l10.71-1.61c0.05,2.43,0.27,4.39,0.67,5.88c0.4,1.49,0.96,2.57,1.68,3.22
					c0.72,0.65,1.6,0.98,2.63,0.98c1.31,0,2.16-0.44,2.55-1.33c0.4-0.89,0.6-1.82,0.6-2.8c0-2.33-0.56-4.31-1.68-5.92
					c-1.12-1.61-2.64-3.23-4.55-4.87l-4.9-4.27c-2.15-1.82-3.96-3.89-5.42-6.2s-2.21-5.17-2.21-8.57c0-4.81,1.42-8.48,4.27-11.02
					c2.85-2.54,6.72-3.82,11.62-3.82c3.03,0,5.47,0.51,7.32,1.54c1.84,1.03,3.24,2.37,4.2,4.03c0.96,1.66,1.61,3.41,1.96,5.25
					c0.35,1.84,0.55,3.6,0.59,5.28l-10.78,1.33c-0.05-1.68-0.15-3.14-0.32-4.38c-0.16-1.24-0.5-2.19-1.01-2.87
					c-0.51-0.68-1.31-1.01-2.38-1.01c-1.17,0-2.02,0.49-2.55,1.47c-0.54,0.98-0.8,1.96-0.8,2.94c0,2.1,0.5,3.81,1.5,5.15
					c1,1.33,2.32,2.72,3.96,4.17l4.69,4.13c2.47,2.1,4.56,4.48,6.26,7.14c1.7,2.66,2.55,5.95,2.55,9.87c0,2.66-0.61,5.08-1.82,7.25
					c-1.21,2.17-2.93,3.89-5.15,5.15C172.71,258.09,170.09,258.72,167.05,258.72z"/>
				<path class="st0" d="M222.14,258.72c-4.25,0-7.61-0.75-10.08-2.24c-2.47-1.49-4.25-3.64-5.32-6.44
					c-1.07-2.8-1.61-6.14-1.61-10.01v-21.07c0-3.92,0.54-7.26,1.61-10.01c1.07-2.75,2.85-4.86,5.32-6.33
					c2.47-1.47,5.83-2.21,10.08-2.21c4.29,0,7.69,0.74,10.19,2.21c2.5,1.47,4.28,3.58,5.36,6.33c1.07,2.75,1.61,6.09,1.61,10.01
					v21.07c0,3.87-0.54,7.21-1.61,10.01c-1.07,2.8-2.86,4.95-5.36,6.44C229.83,257.97,226.44,258.72,222.14,258.72z M222.14,249.83
					c1.31,0,2.26-0.33,2.87-0.98c0.61-0.65,1-1.49,1.19-2.52c0.19-1.03,0.28-2.08,0.28-3.15v-27.3c0-1.12-0.09-2.18-0.28-3.19
					c-0.19-1-0.58-1.83-1.19-2.48c-0.61-0.65-1.56-0.98-2.87-0.98c-1.21,0-2.12,0.33-2.73,0.98c-0.61,0.65-1,1.48-1.19,2.48
					c-0.19,1-0.28,2.06-0.28,3.19v27.3c0,1.07,0.08,2.12,0.24,3.15s0.54,1.87,1.12,2.52C219.89,249.5,220.84,249.83,222.14,249.83z"
					/>
				<path class="st0" d="M246.92,257.88v-56.7h24.5v8.47h-11.97v14.28h10.43v8.75h-10.43v25.2H246.92z"/>
				<path class="st0" d="M295.22,257.88v-56.7h24.5v8.47h-11.97v14.28h10.43v8.75h-10.43v25.2H295.22z"/>
				<path class="st0" d="M341.84,258.72c-4.25,0-7.61-0.75-10.08-2.24c-2.47-1.49-4.25-3.64-5.32-6.44
					c-1.07-2.8-1.61-6.14-1.61-10.01v-21.07c0-3.92,0.54-7.26,1.61-10.01c1.07-2.75,2.85-4.86,5.32-6.33
					c2.47-1.47,5.83-2.21,10.08-2.21c4.29,0,7.69,0.74,10.18,2.21c2.5,1.47,4.28,3.58,5.36,6.33c1.07,2.75,1.61,6.09,1.61,10.01
					v21.07c0,3.87-0.54,7.21-1.61,10.01c-1.07,2.8-2.86,4.95-5.36,6.44C349.53,257.97,346.13,258.72,341.84,258.72z M341.84,249.83
					c1.31,0,2.26-0.33,2.87-0.98c0.61-0.65,1-1.49,1.19-2.52c0.19-1.03,0.28-2.08,0.28-3.15v-27.3c0-1.12-0.09-2.18-0.28-3.19
					c-0.19-1-0.58-1.83-1.19-2.48c-0.61-0.65-1.56-0.98-2.87-0.98c-1.21,0-2.12,0.33-2.73,0.98c-0.61,0.65-1,1.48-1.19,2.48
					c-0.19,1-0.28,2.06-0.28,3.19v27.3c0,1.07,0.08,2.12,0.25,3.15c0.16,1.03,0.54,1.87,1.12,2.52
					C339.59,249.5,340.53,249.83,341.84,249.83z"/>
				<path class="st0" d="M366.62,257.88v-56.7h15.61c3.83,0,7.14,0.42,9.94,1.26s4.98,2.34,6.54,4.52c1.56,2.17,2.34,5.24,2.34,9.2
					c0,2.33-0.19,4.41-0.56,6.23c-0.37,1.82-1.06,3.4-2.07,4.73c-1,1.33-2.44,2.44-4.3,3.33l7.77,27.44h-12.95l-6.23-25.41h-3.57
					v25.41H366.62z M379.15,225.26h3.5c1.77,0,3.15-0.31,4.13-0.94c0.98-0.63,1.67-1.54,2.06-2.73s0.59-2.63,0.59-4.31
					c0-2.43-0.44-4.32-1.33-5.67c-0.89-1.35-2.52-2.03-4.9-2.03h-4.06V225.26z"/>
				<path class="st0" d="M413.73,257.88v-47.39h-8.54v-9.31h29.61v9.31h-8.47v47.39H413.73z"/>
				<path class="st0" d="M456.15,258.72c-4.34,0-7.74-0.71-10.19-2.13c-2.45-1.42-4.16-3.5-5.14-6.23
					c-0.98-2.73-1.47-6.08-1.47-10.04v-39.13h12.39v41.02c0,1.17,0.09,2.33,0.28,3.5c0.19,1.17,0.59,2.12,1.22,2.87
					c0.63,0.75,1.6,1.12,2.91,1.12c1.35,0,2.33-0.37,2.94-1.12c0.61-0.75,0.99-1.7,1.16-2.87c0.16-1.17,0.25-2.33,0.25-3.5v-41.02
					h12.46v39.13c0,3.97-0.5,7.32-1.5,10.04c-1,2.73-2.72,4.81-5.14,6.23C463.87,258.01,460.49,258.72,456.15,258.72z"/>
				<path class="st0" d="M480.93,257.88v-56.7h8.82l11.62,27.3v-27.3h10.36v56.7h-8.47l-11.62-29.4v29.4H480.93z"/>
				<path class="st0" d="M520.2,257.88v-56.7h25.48v8.54h-12.95v14.07h9.87v8.68h-9.87v16.94h13.09v8.47H520.2z"/>
			</g>
		</g>
	</g>
</g>
<g id="Warstwa_3">
</g>
<g id="Warstwa_4">
</g>
<g id="Warstwa_5">
</g>
</svg>
