<svg xmlns="http://www.w3.org/2000/svg" viewBox="0 0 75 75"><defs><style>.cls-1{fill:#282828;}.cls-2{fill:#3f3f3f;}.cls-3{fill:none;}</style></defs><g id="Warstwa_5" data-name="Warstwa 5"><path class="cls-1" d="M43.81,14v1.4a2.1,2.1,0,0,1-2.1,2.1H40.3v1.41A2.1,2.1,0,0,1,38.2,21H36.8a2.1,2.1,0,0,1-2.1-2.1V17.52H33.29a2.1,2.1,0,0,1-2.1-2.1V14a2.1,2.1,0,0,1,2.1-2.1H34.7v-1.4a2.1,2.1,0,0,1,2.1-2.11h1.4a2.1,2.1,0,0,1,2.1,2.11v1.4h1.41A2.1,2.1,0,0,1,43.81,14Zm12.56,14.2c-3.15-1-6.69.22-9.77,3-2-4.5-5.35-7.43-9.1-7.43s-7.07,2.93-9.1,7.43c-3.08-2.82-6.62-4.06-9.77-3-5.89,1.93-8.17,11.1-5.11,20.47a25.15,25.15,0,0,0,5.88,9.92,2.09,2.09,0,0,0-.82,1.67v4.2a2.1,2.1,0,0,0,2.1,2.11H53.62a2.1,2.1,0,0,0,2.1-2.11v-4.2A2.07,2.07,0,0,0,55.25,59a24.73,24.73,0,0,0,6.23-10.26C64.54,39.32,62.26,30.15,56.37,28.22Z"/><path class="cls-2" d="M61.48,48.69A24.79,24.79,0,0,1,55.25,59a2.06,2.06,0,0,1,.48,1.33v4.2a2.1,2.1,0,0,1-2.11,2.1h-19a155,155,0,0,0,3.14-42.74c3.63.14,6.83,3,8.82,7.42,3.07-2.82,6.61-4.07,9.76-3C62.26,30.14,64.54,39.31,61.48,48.69Z"/><path class="cls-2" d="M43.81,14v1.4a2.1,2.1,0,0,1-2.1,2.1h-1.4v1.4A2.12,2.12,0,0,1,38.2,21h-.6q-.48-6.21-1.43-12.53a2.18,2.18,0,0,1,.63-.09h1.4a2.11,2.11,0,0,1,2.11,2.1v1.4h1.4A2.11,2.11,0,0,1,43.81,14Z"/><rect class="cls-3" width="75" height="75"/></g></svg>