<svg xmlns="http://www.w3.org/2000/svg" viewBox="0 0 75 75"><defs><style>.cls-1{fill:#282828;}.cls-2{fill:#3f3f3f;}.cls-3{fill:none;}</style></defs><g id="Warstwa_5" data-name="Warstwa 5"><path class="cls-1" d="M61.22,56.27v5.67A2.21,2.21,0,0,1,59,64.15H16.64a2.21,2.21,0,0,1-2.21-2.21V56.27a2.21,2.21,0,0,1,2.21-2.21H28.31c2.22-1.74,4.28-4.7,6.13-9.28a2.25,2.25,0,0,0-2.37-3.07,30.45,30.45,0,0,1-3.16.31,2.18,2.18,0,0,0-2,1.81c-1.82,9.74-18.59,7.05-11.62-6.19l5.16-10.31a2.22,2.22,0,0,0-.46-2.6L16.06,21a2.22,2.22,0,0,1,0-3.25c18.2-16.71,62.08-2.55,38.52,36.3H59A2.21,2.21,0,0,1,61.22,56.27Z"/><path class="cls-2" d="M61.21,56.27v5.67A2.2,2.2,0,0,1,59,64.15H34.92a163.77,163.77,0,0,0-.56-53.28c18.53-.52,37.53,14.7,20.26,43.19H59A2.2,2.2,0,0,1,61.21,56.27Z"/><rect class="cls-3" width="75" height="75"/></g></svg>