<svg xmlns="http://www.w3.org/2000/svg" viewBox="0 0 75 75"><defs><style>.cls-1{fill:#eaeaea;}.cls-2{fill:#ccc;}.cls-3{fill:none;}</style></defs><g id="Warstwa_5" data-name="Warstwa 5"><path class="cls-1" d="M13.65,27a4.59,4.59,0,1,1-4.59-4.59A4.6,4.6,0,0,1,13.65,27ZM26.49,9.52a4.59,4.59,0,1,0,4.59,4.58A4.59,4.59,0,0,0,26.49,9.52Zm22.94,0A4.59,4.59,0,1,0,54,14.1,4.58,4.58,0,0,0,49.43,9.52ZM65.94,23.28a4.59,4.59,0,1,0,4.59,4.59A4.59,4.59,0,0,0,65.94,23.28Zm-7,9.51-8.61,6.06L49.81,24a2.75,2.75,0,0,0-5.21-1.13L37.5,37,30.81,22.51a2.76,2.76,0,0,0-5.25.9L24.19,38.16l-7.63-5.53a2.74,2.74,0,0,0-4.24,3l4.91,19.75h-.46a2.22,2.22,0,0,0-2.21,2.21v5.67a2.21,2.21,0,0,0,2.21,2.21H59.14a2.2,2.2,0,0,0,2.21-2.21V57.6a2.21,2.21,0,0,0-2.21-2.21h-1.6L63.13,36A2.75,2.75,0,0,0,59,32.79Z"/><path class="cls-2" d="M70.53,27.87a4.59,4.59,0,1,1-4.59-4.59A4.58,4.58,0,0,1,70.53,27.87Z"/><path class="cls-2" d="M54,14.11a4.59,4.59,0,1,1-4.59-4.59A4.59,4.59,0,0,1,54,14.11Z"/><path class="cls-2" d="M63.14,36,57.55,55.39h1.59a2.2,2.2,0,0,1,2.21,2.21v5.67a2.2,2.2,0,0,1-2.21,2.21H33.63A153.45,153.45,0,0,0,36.4,34.65L37.5,37l7.1-14.2A2.75,2.75,0,0,1,49.81,24l.54,14.88L59,32.79A2.76,2.76,0,0,1,63.14,36Z"/><rect class="cls-3" width="75" height="75"/></g></svg>